<svg width="352" height="91" viewBox="0 0 352 91" fill="none" xmlns="http://www.w3.org/2000/svg">
<g clip-path="url(#clip0_1081_965)">
<g clip-path="url(#clip1_1081_965)">
<path d="M62.3747 48.6608H57.9296C57.1708 48.6403 56.4485 48.3288 55.912 47.7917C55.3755 47.2539 55.066 46.5309 55.0474 45.7714C55.0283 45.0127 55.3014 44.2751 55.8108 43.7116L58.9668 40.5555C59.3869 40.1407 59.623 39.5752 59.623 38.9845C59.623 38.3944 59.3869 37.8289 58.9668 37.4141L51.7506 30.1979C51.3359 29.7779 50.7703 29.5417 50.1803 29.5417C49.5902 29.5417 49.0247 29.7779 48.6099 30.1979L45.4387 33.3394C45.0206 33.735 44.4934 33.9956 43.9252 34.0882C43.3576 34.1809 42.7748 34.1001 42.2529 33.858C41.7303 33.6556 41.2792 33.3024 40.9571 32.8433C40.6356 32.3842 40.457 31.8405 40.4451 31.2795V26.8343C40.4451 25.6072 39.4502 24.6117 38.2224 24.6117H28.058C26.8304 24.6117 25.8354 25.6072 25.8354 26.8343V31.2795C25.8103 32.0435 25.4908 32.7685 24.9438 33.3023C24.3967 33.8361 23.6644 34.1384 22.9005 34.1451C22.1358 34.1524 21.3982 33.8632 20.842 33.3394L17.6859 30.1834C16.8022 29.3551 15.4276 29.3551 14.5445 30.1834L7.32833 37.3698C6.90828 37.7846 6.67213 38.3502 6.67213 38.9402C6.67213 39.5303 6.90828 40.0965 7.32833 40.5113L10.4844 43.7115C10.87 44.1196 11.1273 44.6323 11.2246 45.1853C11.3218 45.7383 11.2556 46.3078 11.0327 46.8231C10.8296 47.3596 10.4692 47.822 9.99817 48.1501C9.52784 48.4782 8.96887 48.6561 8.39537 48.6608H3.95015C2.72242 48.6608 1.72754 49.6556 1.72754 50.8833V61.0928C1.72754 62.3205 2.72242 63.3147 3.95015 63.3147H8.39537C9.1614 63.3366 9.88835 63.6535 10.4255 64.1999C10.9626 64.7462 11.2669 65.4792 11.2754 66.2451C11.2834 67.0112 10.995 67.7506 10.4698 68.3081L7.3283 71.4647C6.90824 71.879 6.67209 72.4446 6.67209 73.0357C6.67209 73.6254 6.90824 74.191 7.3283 74.6059L14.5444 81.8217C14.9592 82.242 15.5248 82.478 16.1148 82.478C16.7055 82.478 17.2711 82.242 17.6859 81.8217L20.8419 78.6657C21.2659 78.2804 21.7925 78.0268 22.358 77.934C22.9236 77.8426 23.503 77.9166 24.0277 78.1472C24.5542 78.353 25.0067 78.7108 25.3288 79.1754C25.6509 79.6401 25.8269 80.1902 25.8355 80.7551V85.2002C25.8355 86.4282 26.8304 87.4228 28.0581 87.4228H38.2676C39.4952 87.4228 40.4895 86.4282 40.4895 85.2002V80.7551C40.5173 79.9992 40.8335 79.2824 41.3719 78.7518C41.911 78.2212 42.632 77.9172 43.3881 77.9011C44.1442 77.885 44.8778 78.1587 45.4387 78.6657L48.5947 81.8223C49.0094 82.242 49.575 82.478 50.1657 82.478C50.7558 82.478 51.3213 82.242 51.736 81.8223L58.9522 74.6059C59.8188 73.7377 59.8188 72.3323 58.9522 71.4641L55.8108 68.3081C55.4152 67.8905 55.1546 67.3633 55.062 66.7949C54.9694 66.2273 55.0501 65.6445 55.2921 65.1226C55.4946 64.6 55.8478 64.1489 56.3069 63.8268C56.766 63.5053 57.3097 63.3267 57.8707 63.3148H62.3159C63.543 63.3148 64.5385 62.3199 64.5385 61.0922V50.8834C64.5385 49.6782 63.5793 48.6925 62.3747 48.6608ZM33.1549 70.1319C29.4015 70.1319 25.801 68.6403 23.1471 65.9856C20.4931 63.3309 19.0028 59.7304 19.0041 55.9766C19.0055 52.2227 20.4985 48.6228 23.1544 45.9702C25.8103 43.317 29.4114 41.8279 33.1647 41.8306C36.9186 41.8333 40.5178 43.3276 43.1698 45.9841C45.8216 48.6407 47.3093 52.2424 47.3054 55.9964C47.3014 59.7465 45.8091 63.3423 43.1558 65.9928C40.5026 68.6423 36.9056 70.1319 33.1549 70.1319Z" fill="black"/>
<path d="M57.7226 17.292C54.2889 17.3013 50.9753 18.5601 48.4022 20.833C47.9624 21.2259 47.6964 21.7782 47.6627 22.367C47.6296 22.9564 47.8313 23.5345 48.2243 23.9744C49.0426 24.8912 50.4489 24.9706 51.3657 24.1524C53.876 22.1692 57.2014 21.5507 60.2568 22.498C63.3123 23.4459 65.7042 25.8379 66.6522 28.8933C67.5995 31.9488 66.981 35.2741 64.9978 37.7844C64.1868 38.7032 64.2656 40.1043 65.1758 40.9259C66.0946 41.7369 67.4956 41.6575 68.3172 40.748C70.7325 38.0121 71.9968 34.448 71.8468 30.8012C71.6968 27.1551 70.1434 23.7073 67.5115 21.1785C64.8794 18.6503 61.3722 17.2368 57.7227 17.2327L57.7226 17.292Z" fill="black"/>
<path d="M86.9274 24.1081H82.4823C81.9235 24.0988 81.3788 23.9235 80.9195 23.6046C80.4608 23.2851 80.1071 22.836 79.904 22.3147V22.1811V22.1818C79.6888 21.6711 79.6276 21.1089 79.7278 20.5638C79.8273 20.0194 80.0849 19.5153 80.4675 19.1145L83.6235 15.9584C84.4897 15.0905 84.4897 13.6848 83.6235 12.817L76.3331 5.6008C75.4501 4.77263 74.0756 4.77263 73.1913 5.6008L70.0353 8.75681C69.6345 9.13918 69.1308 9.39648 68.5862 9.49641C68.0411 9.59627 67.4789 9.53541 66.9682 9.32042H66.8346C66.3014 9.11269 65.845 8.7476 65.5248 8.27397C65.2047 7.79966 65.036 7.24002 65.0419 6.66783V2.22261C65.0419 0.994885 64.047 0 62.8194 0H52.6105C51.3828 0 50.388 0.994885 50.388 2.22261V6.66783C50.3787 7.22678 50.2034 7.77122 49.8839 8.23026C49.565 8.68936 49.1159 9.04329 48.5947 9.24631H48.4464C47.951 9.45996 47.404 9.52748 46.8714 9.44079C46.3383 9.35418 45.8408 9.11733 45.4387 8.75681L42.2384 5.60079C41.3547 4.77261 39.9801 4.77261 39.097 5.60079L31.8808 12.8169C31.4608 13.2317 31.2246 13.7973 31.2246 14.3873C31.2246 14.978 31.4608 15.5436 31.8808 15.9584L35.0665 19.1144C35.9423 19.9307 37.3069 19.9062 38.1531 19.0601C38.9998 18.2134 39.0236 16.8487 38.208 15.973L36.5483 14.3874L40.623 10.3127L42.2086 11.8983C43.2399 12.9038 44.5464 13.5811 45.9626 13.8451C47.3788 14.109 48.8414 13.947 50.1656 13.3801H50.284C51.6011 12.8323 52.7263 11.9069 53.5174 10.7202C54.3086 9.53353 54.73 8.13839 54.7292 6.71223V4.44525H60.4935L60.4928 6.66786C60.4968 8.09139 60.9208 9.48181 61.7113 10.6652C62.5025 11.8486 63.6251 12.7726 64.9381 13.3212L65.1008 13.3952C66.4251 13.9614 67.8883 14.1235 69.3043 13.8596C70.7199 13.5963 72.0265 12.9189 73.0588 11.9135L74.6438 10.3279L78.7191 14.4026L77.1334 15.9882C76.126 17.0181 75.4468 18.3246 75.1832 19.7415C74.9196 21.1577 75.0823 22.621 75.6512 23.9446V24.1079C76.2 25.421 77.1233 26.5436 78.3069 27.3348C79.4904 28.1253 80.8804 28.5493 82.3041 28.5532H84.7049V34.3174L82.4823 34.3168C81.056 34.3161 79.6606 34.7375 78.4743 35.5293C77.2874 36.3204 76.362 37.4449 75.814 38.762V38.8811C75.2471 40.2054 75.0857 41.6679 75.3493 43.0835C75.6129 44.4998 76.2908 45.8061 77.2961 46.8375L78.8812 48.423L74.7622 52.6017L73.1772 50.9718C72.7817 50.4816 72.1987 50.1813 71.5699 50.1456C70.9418 50.1106 70.3278 50.3427 69.8806 50.7859C69.4334 51.2284 69.1954 51.8403 69.2243 52.4688C69.2539 53.0978 69.5484 53.6846 70.0353 54.0835L73.1913 57.2395C74.0594 58.1061 75.4649 58.1061 76.3331 57.2395L83.5489 50.0233C84.4157 49.1561 84.4157 47.7497 83.5489 46.8826L80.3929 43.7113C80.0291 43.321 79.7829 42.8354 79.6834 42.3109C79.5839 41.7864 79.6343 41.2446 79.8294 40.7478C79.832 40.6982 79.832 40.6493 79.8294 40.5996C80.0298 40.0586 80.3922 39.5922 80.8663 39.2634C81.3411 38.9346 81.9053 38.76 82.4823 38.762H86.9274C88.1547 38.762 89.15 37.7671 89.15 36.5394V26.3306C89.15 25.1029 88.1547 24.1081 86.9274 24.1081Z" fill="black"/>
</g>
</g>
<path d="M126.248 61.1362H118.871V31.5536H107.755V24.1516H137.338V31.5536H126.248V61.1362ZM147.164 54.3789C147.439 54.4649 147.715 54.5251 147.99 54.5595C148.265 54.5767 148.54 54.5852 148.815 54.5852C149.503 54.5852 150.165 54.4907 150.801 54.3015C151.437 54.1124 152.03 53.8459 152.58 53.502C153.148 53.1409 153.647 52.7111 154.076 52.2125C154.523 51.6966 154.885 51.1292 155.16 50.5102L160.318 55.6943C159.664 56.6228 158.908 57.4567 158.048 58.196C157.206 58.9354 156.286 59.563 155.289 60.0788C154.308 60.5946 153.268 60.9815 152.168 61.2394C151.085 61.5145 149.967 61.6521 148.815 61.6521C146.872 61.6521 145.041 61.291 143.321 60.5688C141.619 59.8467 140.123 58.8408 138.834 57.5512C137.561 56.2617 136.556 54.7314 135.816 52.9604C135.077 51.1722 134.707 49.2121 134.707 47.08C134.707 44.8963 135.077 42.9018 135.816 41.0964C136.556 39.291 137.561 37.7521 138.834 36.4798C140.123 35.2074 141.619 34.2187 143.321 33.5138C145.041 32.8088 146.872 32.4563 148.815 32.4563C149.967 32.4563 151.093 32.5939 152.194 32.869C153.294 33.1441 154.334 33.5396 155.314 34.0554C156.312 34.5712 157.24 35.2074 158.1 35.964C158.96 36.7033 159.716 37.5372 160.369 38.4657L147.164 54.3789ZM150.775 39.8584C150.448 39.7381 150.122 39.6607 149.795 39.6263C149.486 39.5919 149.159 39.5747 148.815 39.5747C147.852 39.5747 146.941 39.7553 146.081 40.1163C145.239 40.4602 144.499 40.9589 143.863 41.6122C143.244 42.2656 142.754 43.0566 142.393 43.985C142.032 44.8963 141.851 45.928 141.851 47.08C141.851 47.3379 141.86 47.6302 141.877 47.9569C141.911 48.2836 141.954 48.6189 142.006 48.9628C142.075 49.2894 142.152 49.6075 142.238 49.917C142.324 50.2265 142.436 50.5016 142.573 50.7423L150.775 39.8584ZM187.863 39.0073L182.705 44.1914C182.447 43.4692 182.094 42.8244 181.647 42.257C181.2 41.6724 180.693 41.1824 180.126 40.7869C179.575 40.3915 178.974 40.0906 178.32 39.8842C177.667 39.6779 176.996 39.5747 176.308 39.5747C175.346 39.5747 174.434 39.7725 173.575 40.1679C172.732 40.5634 171.993 41.1222 171.357 41.8444C170.738 42.5493 170.247 43.3918 169.886 44.3719C169.525 45.352 169.345 46.4352 169.345 47.6216C169.345 48.5845 169.525 49.4872 169.886 50.3297C170.247 51.1722 170.738 51.9116 171.357 52.5477C171.993 53.1839 172.732 53.6826 173.575 54.0436C174.434 54.4047 175.346 54.5852 176.308 54.5852C176.996 54.5852 177.658 54.4907 178.294 54.3015C178.931 54.1124 179.524 53.8459 180.074 53.502C180.641 53.1409 181.14 52.7111 181.57 52.2125C182.017 51.6966 182.378 51.1292 182.653 50.5102L187.811 55.6943C187.158 56.6228 186.401 57.4567 185.542 58.196C184.699 58.9354 183.779 59.563 182.782 60.0788C181.802 60.5946 180.762 60.9815 179.661 61.2394C178.578 61.5145 177.46 61.6521 176.308 61.6521C174.366 61.6521 172.534 61.291 170.815 60.5688C169.113 59.8295 167.617 58.8236 166.327 57.5512C165.055 56.2789 164.049 54.7916 163.31 53.0894C162.57 51.3871 162.201 49.5645 162.201 47.6216C162.201 45.5067 162.57 43.5294 163.31 41.6896C164.049 39.8498 165.055 38.2508 166.327 36.8924C167.617 35.5169 169.113 34.4337 170.815 33.6427C172.534 32.8518 174.366 32.4563 176.308 32.4563C177.46 32.4563 178.587 32.6025 179.687 32.8948C180.805 33.1871 181.862 33.6169 182.859 34.1844C183.874 34.7346 184.802 35.4137 185.645 36.2219C186.505 37.03 187.244 37.9585 187.863 39.0073ZM198.36 61.1362H191.319V22.5267H198.36V34.726C199.202 34.0898 200.071 33.6427 200.965 33.3848C201.859 33.1097 202.77 32.9722 203.699 32.9722C205.401 32.9722 207 33.2989 208.496 33.9522C209.992 34.5884 211.29 35.4739 212.39 36.6087C213.508 37.7264 214.385 39.0417 215.021 40.5548C215.675 42.0507 216.001 43.6498 216.001 45.352V61.1362H208.909V45.352H208.96C208.96 44.6298 208.823 43.9506 208.548 43.3145C208.272 42.6611 207.894 42.0937 207.413 41.6122C206.931 41.1308 206.372 40.7525 205.736 40.4774C205.1 40.2023 204.421 40.0648 203.699 40.0648C202.959 40.0648 202.263 40.2023 201.61 40.4774C200.956 40.7525 200.389 41.1308 199.907 41.6122C199.426 42.0937 199.048 42.6611 198.773 43.3145C198.498 43.9506 198.36 44.6298 198.36 45.352V61.1362ZM251.361 61.1362H243.443L229.181 36.7893V61.1362H221.778V24.1516H229.696L243.959 48.5243V24.1516H251.361V61.1362ZM283.781 47.08C283.781 49.1433 283.411 51.069 282.672 52.8572C281.932 54.6282 280.926 56.1671 279.654 57.4739C278.382 58.7634 276.886 59.7865 275.166 60.543C273.464 61.2824 271.633 61.6521 269.673 61.6521C267.73 61.6521 265.899 61.2824 264.179 60.543C262.477 59.7865 260.981 58.7634 259.692 57.4739C258.419 56.1671 257.413 54.6282 256.674 52.8572C255.935 51.069 255.565 49.1433 255.565 47.08C255.565 44.9823 255.935 43.0394 256.674 41.2512C257.413 39.463 258.419 37.9241 259.692 36.6345C260.981 35.3278 262.477 34.3047 264.179 33.5654C265.899 32.826 267.73 32.4563 269.673 32.4563C271.633 32.4563 273.464 32.8088 275.166 33.5138C276.886 34.2016 278.382 35.1902 279.654 36.4798C280.926 37.7521 281.932 39.291 282.672 41.0964C283.411 42.8846 283.781 44.8791 283.781 47.08ZM276.688 47.08C276.688 45.9452 276.499 44.9221 276.121 44.0108C275.76 43.0823 275.261 42.2914 274.625 41.638C273.989 40.9675 273.241 40.4602 272.381 40.1163C271.538 39.7553 270.636 39.5747 269.673 39.5747C268.71 39.5747 267.799 39.7553 266.939 40.1163C266.096 40.4602 265.357 40.9675 264.721 41.638C264.102 42.2914 263.612 43.0823 263.251 44.0108C262.89 44.9221 262.709 45.9452 262.709 47.08C262.709 48.146 262.89 49.1347 263.251 50.046C263.612 50.9573 264.102 51.7482 264.721 52.4188C265.357 53.0894 266.096 53.6224 266.939 54.0178C267.799 54.3961 268.71 54.5852 269.673 54.5852C270.636 54.5852 271.538 54.4047 272.381 54.0436C273.241 53.6826 273.989 53.1753 274.625 52.5219C275.261 51.8686 275.76 51.0776 276.121 50.1492C276.499 49.2207 276.688 48.1976 276.688 47.08ZM317.851 57.3965C316.131 58.858 314.214 59.9842 312.099 60.7752C309.985 61.5489 307.784 61.9358 305.497 61.9358C303.743 61.9358 302.049 61.7036 300.416 61.2394C298.8 60.7923 297.287 60.1562 295.877 59.3308C294.467 58.4883 293.177 57.4911 292.008 56.3391C290.839 55.1699 289.842 53.8803 289.016 52.4704C288.191 51.0432 287.546 49.513 287.082 47.8795C286.635 46.2461 286.411 44.5524 286.411 42.7986C286.411 41.0448 286.635 39.3598 287.082 37.7436C287.546 36.1273 288.191 34.6142 289.016 33.2043C289.842 31.7772 290.839 30.4876 292.008 29.3356C293.177 28.1664 294.467 27.1691 295.877 26.3438C297.287 25.5185 298.8 24.8823 300.416 24.4353C302.049 23.971 303.743 23.7389 305.497 23.7389C307.784 23.7389 309.985 24.1344 312.099 24.9253C314.214 25.699 316.131 26.8167 317.851 28.2782L313.982 34.726C312.865 33.5912 311.575 32.7057 310.114 32.0695C308.652 31.4161 307.113 31.0894 305.497 31.0894C303.881 31.0894 302.359 31.3989 300.932 32.0179C299.522 32.6369 298.284 33.4794 297.218 34.5454C296.152 35.5943 295.309 36.8323 294.69 38.2594C294.071 39.6693 293.762 41.1824 293.762 42.7986C293.762 44.4321 294.071 45.9624 294.69 47.3895C295.309 48.8166 296.152 50.0632 297.218 51.1292C298.284 52.1953 299.522 53.0378 300.932 53.6568C302.359 54.2758 303.881 54.5852 305.497 54.5852C306.425 54.5852 307.328 54.4735 308.205 54.25C309.082 54.0264 309.916 53.7169 310.707 53.3215V42.7986H317.851V57.3965ZM349.497 47.08C349.497 49.1433 349.127 51.069 348.388 52.8572C347.648 54.6282 346.643 56.1671 345.37 57.4739C344.098 58.7634 342.602 59.7865 340.883 60.543C339.18 61.2824 337.349 61.6521 335.389 61.6521C333.446 61.6521 331.615 61.2824 329.895 60.543C328.193 59.7865 326.697 58.7634 325.408 57.4739C324.135 56.1671 323.13 54.6282 322.39 52.8572C321.651 51.069 321.281 49.1433 321.281 47.08C321.281 44.9823 321.651 43.0394 322.39 41.2512C323.13 39.463 324.135 37.9241 325.408 36.6345C326.697 35.3278 328.193 34.3047 329.895 33.5654C331.615 32.826 333.446 32.4563 335.389 32.4563C337.349 32.4563 339.18 32.8088 340.883 33.5138C342.602 34.2016 344.098 35.1902 345.37 36.4798C346.643 37.7521 347.648 39.291 348.388 41.0964C349.127 42.8846 349.497 44.8791 349.497 47.08ZM342.404 47.08C342.404 45.9452 342.215 44.9221 341.837 44.0108C341.476 43.0823 340.977 42.2914 340.341 41.638C339.705 40.9675 338.957 40.4602 338.097 40.1163C337.255 39.7553 336.352 39.5747 335.389 39.5747C334.426 39.5747 333.515 39.7553 332.655 40.1163C331.813 40.4602 331.073 40.9675 330.437 41.638C329.818 42.2914 329.328 43.0823 328.967 44.0108C328.606 44.9221 328.425 45.9452 328.425 47.08C328.425 48.146 328.606 49.1347 328.967 50.046C329.328 50.9573 329.818 51.7482 330.437 52.4188C331.073 53.0894 331.813 53.6224 332.655 54.0178C333.515 54.3961 334.426 54.5852 335.389 54.5852C336.352 54.5852 337.255 54.4047 338.097 54.0436C338.957 53.6826 339.705 53.1753 340.341 52.5219C340.977 51.8686 341.476 51.0776 341.837 50.1492C342.215 49.2207 342.404 48.1976 342.404 47.08Z" fill="black"/>
<defs>
<clipPath id="clip0_1081_965">
<rect width="90.7853" height="90.7853" fill="white"/>
</clipPath>
<clipPath id="clip1_1081_965">
<rect width="88.0953" height="87.4228" fill="white" transform="translate(1.68164)"/>
</clipPath>
</defs>
</svg>
