<svg width="53" height="50" viewBox="0 0 53 50" fill="none" xmlns="http://www.w3.org/2000/svg">
<path d="M26.1806 33.6499C21.1393 33.6499 17.0479 29.5939 17.0479 24.5964C17.0479 19.5989 21.1393 15.543 26.1806 15.543C31.2218 15.543 35.3133 19.5989 35.3133 24.5964C35.3133 29.5939 31.2218 33.6499 26.1806 33.6499ZM26.1806 19.1643C23.1607 19.1643 20.7009 21.6027 20.7009 24.5964C20.7009 27.5901 23.1607 30.0285 26.1806 30.0285C29.2005 30.0285 31.6602 27.5901 31.6602 24.5964C31.6602 21.6027 29.2005 19.1643 26.1806 19.1643Z" fill="#292D32"/>
<path d="M33.9981 49.1971C33.4866 49.1971 32.9752 49.1247 32.4638 49.004C30.9538 48.5936 29.6874 47.652 28.8837 46.3242L28.5915 45.8413C27.1546 43.3788 25.182 43.3788 23.7451 45.8413L23.4772 46.3C22.6735 47.652 21.4071 48.6177 19.8972 49.004C18.3629 49.4144 16.7799 49.1971 15.4404 48.4004L11.2515 46.0103C9.76592 45.1653 8.69435 43.7892 8.23163 42.1234C7.79326 40.4575 8.01244 38.7434 8.86483 37.2707C9.57109 36.0395 9.76592 34.9289 9.35191 34.2288C8.93789 33.5286 7.89067 33.1182 6.45379 33.1182C2.89812 33.1182 0 30.2452 0 26.7204V22.4714C0 18.9465 2.89812 16.0736 6.45379 16.0736C7.89067 16.0736 8.93789 15.6632 9.35191 14.963C9.76592 14.2629 9.59544 13.1523 8.86483 11.9211C8.01244 10.4484 7.79326 8.71011 8.23163 7.06842C8.67 5.40258 9.74157 4.02646 11.2515 3.18147L15.4647 0.79136C18.2167 -0.82619 21.8455 0.115368 23.5015 2.89176L23.7938 3.37461C25.2307 5.83715 27.2033 5.83715 28.6402 3.37461L28.9081 2.9159C30.5642 0.115368 34.1929 -0.82619 36.9693 0.815502L41.1581 3.20561C42.6437 4.0506 43.7153 5.42673 44.178 7.09256C44.6164 8.7584 44.3972 10.4725 43.5448 11.9452C42.8385 13.1765 42.6437 14.287 43.0577 14.9872C43.4718 15.6873 44.519 16.0977 45.9559 16.0977C49.5115 16.0977 52.4096 18.9707 52.4096 22.4955V26.7446C52.4096 30.2694 49.5115 33.1424 45.9559 33.1424C44.519 33.1424 43.4718 33.5528 43.0577 34.2529C42.6437 34.953 42.8142 36.0636 43.5448 37.2949C44.3972 38.7676 44.6407 40.5058 44.178 42.1475C43.7396 43.8134 42.6681 45.1895 41.1581 46.0345L36.9449 48.4246C36.0195 48.9316 35.0209 49.1971 33.9981 49.1971ZM26.1805 40.2644C28.348 40.2644 30.3693 41.6164 31.7575 44.0065L32.0254 44.4652C32.3177 44.9722 32.8047 45.3343 33.3892 45.4792C33.9737 45.624 34.5582 45.5516 35.0453 45.2619L39.2585 42.8476C39.8917 42.4855 40.3788 41.882 40.5736 41.1577C40.7685 40.4334 40.671 39.685 40.3057 39.0573C38.9176 36.6913 38.7471 34.2529 39.8187 32.3939C40.8902 30.535 43.1064 29.4727 45.8828 29.4727C47.4414 29.4727 48.6835 28.2414 48.6835 26.6963V22.4472C48.6835 20.9262 47.4414 19.6708 45.8828 19.6708C43.1064 19.6708 40.8902 18.6085 39.8187 16.7496C38.7471 14.8906 38.9176 12.4522 40.3057 10.0862C40.671 9.45853 40.7685 8.71011 40.5736 7.98583C40.3788 7.26156 39.9161 6.68214 39.2829 6.29586L35.0696 3.90575C34.0224 3.27804 32.6343 3.64018 32.0011 4.70245L31.7332 5.16116C30.345 7.55127 28.3236 8.90325 26.1561 8.90325C23.9886 8.90325 21.9672 7.55127 20.5791 5.16116L20.3112 4.67831C19.7023 3.66432 18.3385 3.30218 17.2913 3.90575L13.0781 6.32C12.4449 6.68214 11.9578 7.2857 11.7629 8.00998C11.5681 8.73425 11.6655 9.48267 12.0308 10.1104C13.419 12.4763 13.5895 14.9147 12.5179 16.7737C11.4463 18.6327 9.23014 19.695 6.45379 19.695C4.89514 19.695 3.65309 20.9262 3.65309 22.4714V26.7204C3.65309 28.2414 4.89514 29.4968 6.45379 29.4968C9.23014 29.4968 11.4463 30.5591 12.5179 32.4181C13.5895 34.2771 13.419 36.7154 12.0308 39.0814C11.6655 39.7091 11.5681 40.4575 11.7629 41.1818C11.9578 41.9061 12.4205 42.4855 13.0537 42.8718L17.2669 45.2619C17.7784 45.5758 18.3872 45.6482 18.9473 45.5033C19.5318 45.3585 20.0189 44.9722 20.3355 44.4652L20.6034 44.0065C21.9916 41.6405 24.013 40.2644 26.1805 40.2644Z" fill="#292D32"/>
</svg>
